<?xml version="1.0" encoding="iso-8859-1"?>
<!-- Uploaded to: SVG Repo, www.svgrepo.com, Generator: SVG Repo Mixer Tools -->
<svg height="800px" width="800px" version="1.1" id="Layer_1" xmlns="http://www.w3.org/2000/svg" xmlns:xlink="http://www.w3.org/1999/xlink" 
	 viewBox="0 0 512.001 512.001" xml:space="preserve">
<path style="fill:#2BA5B1;" d="M7.604,171.286v53.105c0,137.186,111.212,248.394,248.395,248.394
	c137.185,0,248.395-111.209,248.395-248.394v-53.105H7.604z"/>
<polyline style="fill:#00649D;" points="159.681,208.167 504.396,208.167 504.396,171.286 7.604,171.286 7.604,208.167 
	139.401,208.167 "/>
<g>
	<path style="fill:#53180F;" d="M0,163.682v52.089v8.62c0,68.38,26.629,132.667,74.981,181.019
		C123.333,453.762,187.621,480.39,256,480.39s132.667-26.629,181.019-74.979c48.352-48.351,74.981-112.64,74.981-181.019v-8.62
		v-52.089L0,163.682L0,163.682z M496.791,224.391c0,64.318-25.046,124.785-70.526,170.265
		c-45.479,45.479-105.947,70.526-170.265,70.526s-124.785-25.046-170.265-70.526c-45.481-45.479-70.527-105.947-70.527-170.265
		v-8.62h124.192v-15.209H15.209V178.89h481.583v21.672H159.681v15.209h337.11v8.62H496.791z"/>
	<path style="fill:#53180F;" d="M106.452,140.867c0-10.044,3.741-14.733,8.478-20.67c5.257-6.588,11.8-14.787,11.8-30.156
		s-6.543-23.567-11.8-30.156c-4.737-5.936-8.478-10.626-8.478-20.67v-7.604H91.243v7.604c0,15.369,6.543,23.567,11.8,30.156
		c4.737,5.936,8.478,10.626,8.478,20.67c0,10.044-3.741,14.733-8.478,20.67c-5.257,6.588-11.8,14.787-11.8,30.156v7.604h15.209
		V140.867z"/>
	<path style="fill:#53180F;" d="M165.258,140.867c0-10.044,3.741-14.733,8.478-20.67c5.257-6.588,11.8-14.787,11.8-30.156
		s-6.543-23.567-11.8-30.156c-4.737-5.936-8.478-10.626-8.478-20.67v-7.604H150.05v7.604c0,15.369,6.543,23.567,11.8,30.156
		c4.737,5.936,8.478,10.626,8.478,20.67c0,10.044-3.741,14.733-8.478,20.67c-5.257,6.588-11.8,14.787-11.8,30.156v7.604h15.209
		V140.867z"/>
	<path style="fill:#53180F;" d="M224.063,140.867c0-10.045,3.741-14.733,8.478-20.67c5.257-6.588,11.799-14.788,11.799-30.156
		s-6.543-23.567-11.799-30.156c-4.737-5.936-8.478-10.625-8.478-20.67v-7.604h-15.209v7.604c0,15.368,6.543,23.567,11.799,30.156
		c4.737,5.936,8.478,10.625,8.478,20.67s-3.741,14.733-8.478,20.67c-5.257,6.588-11.799,14.788-11.799,30.156v7.604h15.209V140.867z
		"/>
	<path style="fill:#53180F;" d="M282.867,140.867c0-10.044,3.741-14.733,8.478-20.67c5.257-6.588,11.8-14.787,11.8-30.156
		s-6.543-23.567-11.8-30.156c-4.737-5.936-8.478-10.626-8.478-20.67v-7.604h-15.209v7.604c0,15.369,6.543,23.567,11.8,30.156
		c4.737,5.936,8.478,10.626,8.478,20.67c0,10.044-3.741,14.733-8.478,20.67c-5.257,6.588-11.8,14.787-11.8,30.156v7.604h15.209
		V140.867z"/>
	<path style="fill:#53180F;" d="M341.672,140.867c0-10.044,3.741-14.733,8.478-20.67c5.257-6.588,11.8-14.787,11.8-30.156
		s-6.543-23.567-11.8-30.156c-4.737-5.936-8.478-10.626-8.478-20.67v-7.604h-15.209v7.604c0,15.369,6.543,23.567,11.8,30.156
		c4.737,5.936,8.478,10.626,8.478,20.67c0,10.044-3.741,14.733-8.478,20.67c-5.257,6.588-11.8,14.787-11.8,30.156v7.604h15.209
		V140.867z"/>
	<path style="fill:#53180F;" d="M400.478,140.867c0-10.044,3.741-14.733,8.478-20.67c5.257-6.588,11.8-14.787,11.8-30.156
		s-6.543-23.567-11.8-30.156c-4.737-5.936-8.478-10.626-8.478-20.67v-7.604h-15.209v7.604c0,15.369,6.543,23.567,11.8,30.156
		c4.737,5.936,8.478,10.626,8.478,20.67c0,10.044-3.741,14.733-8.478,20.67c-5.257,6.588-11.8,14.787-11.8,30.156v7.604h15.209
		V140.867z"/>
	<path style="fill:#53180F;" d="M479.418,255.854l-15.064-2.092c-6.302,45.416-26.911,86.699-59.597,119.385
		c-39.735,39.734-92.563,61.616-148.757,61.616v15.209c60.255,0,116.904-23.465,159.511-66.07
		C450.558,348.854,472.657,304.575,479.418,255.854z"/>
</g>
</svg>